<svg xmlns="http://www.w3.org/2000/svg" viewBox="0 0 512 512" width="512" height="512">
  <defs>
    <linearGradient id="bg" x1="0%" y1="0%" x2="100%" y2="100%">
      <stop offset="0%" stop-color="#1565C0"/>
      <stop offset="100%" stop-color="#0D47A1"/>
    </linearGradient>
  </defs>
  <rect width="512" height="512" rx="80" fill="url(#bg)"/>
  <!-- Face icon (Apache 2.0 Material Symbols) scaled and centered -->
  <g transform="translate(96,96) scale(0.667)" fill="#FFFFFF">
    <path d="M240 360q40 0 68-28t28-68q0-40-28-68t-68-28q-40 0-68 28t-28 68q0 40 28 68t68 28Zm0 60q-66 0-113-47T80 260q0-66 47-113t113-47q66 0 113 47t47 113q0 66-47 113T240 420Z" opacity="0.3"/>
    <path d="M240 260q-17 0-28.5-11.5T200 220q0-17 11.5-28.5T240 180q17 0 28.5 11.5T280 220q0 17-11.5 28.5T240 260Z"/>
  </g>
  <!-- Simplified face with scan bracket using Material Design face glyph, scaled to 512 -->
  <g transform="translate(256,256) scale(0.35)" fill="#FFFFFF">
    <path d="M360-390q-21 0-35.5-14.5T310-440q0-21 14.5-35.5T360-490q21 0 35.5 14.5T410-440q0 21-14.5 35.5T360-390Zm240 0q-21 0-35.5-14.5T550-440q0-21 14.5-35.5T600-490q21 0 35.5 14.5T650-440q0 21-14.5 35.5T600-390ZM480-160q-134 0-227-93T160-480q0-134 93-227t227-93q134 0 227 93t93 227q0 134-93 227T480-160Zm0-80q100 0 170-70t70-170q0-100-70-170t-170-70q-100 0-170 70t-70 170q0 100 70 170t170 70Zm0-240ZM320-280h320q0-52-38-86t-122-34q-84 0-122 34t-38 86Z"/>
  </g>
  <!-- Scan frame corners -->
  <g stroke="#4FC3F7" stroke-width="10" stroke-linecap="round" fill="none">
    <path d="M100 170 L100 110 Q100 80 130 80 L170 80"/>
    <path d="M342 80 L382 80 Q412 80 412 110 L412 170"/>
    <path d="M100 342 L100 382 Q100 412 130 412 L170 412"/>
    <path d="M342 412 L382 412 Q412 412 412 382 L412 342"/>
  </g>
  <!-- Scan line -->
  <rect x="110" y="290" width="292" height="3" rx="2" fill="#4FC3F7" opacity="0.6"/>
</svg>
